<svg version="1.1" viewBox="0.0 0.0 64.0 64.0" fill="none" stroke="none" stroke-linecap="square" stroke-miterlimit="10" xmlns:xlink="http://www.w3.org/1999/xlink" xmlns="http://www.w3.org/2000/svg"><clipPath id="p.0"><path d="m0 0l64.0 0l0 64.0l-64.0 0l0 -64.0z" clip-rule="nonzero"/></clipPath><g clip-path="url(#p.0)"><path fill="#000000" fill-opacity="0.0" d="m0 0l64.0 0l0 64.0l-64.0 0z" fill-rule="evenodd"/><path fill="#002676" d="m0 0l64.0 0l0 64.0l-64.0 0z" fill-rule="evenodd"/><path fill="#fdb515" d="m16.200706 24.625626q-1.046875 0 -2.015625 -0.328125q-0.96875 -0.34375 -1.71875 -1.03125q-0.75 -0.6875 -1.1875 -1.71875q-0.421875 -1.046875 -0.421875 -2.421875q0 -1.390625 0.4375 -2.421875q0.4375 -1.03125 1.171875 -1.734375q0.75 -0.703125 1.71875 -1.046875q0.96875 -0.359375 2.015625 -0.359375q1.0625 0 2.015625 0.34375q0.953125 0.34375 1.703125 1.03125q0.75 0.6875 1.1875 1.71875q0.4375 1.03125 0.4375 2.421875q0 1.375 -0.4375 2.421875q-0.421875 1.03125 -1.1875 1.734375q-0.75 0.703125 -1.703125 1.046875q-0.953125 0.34375 -2.015625 0.34375zm0 -1.046875q0.640625 0 1.078125 -0.328125q0.453125 -0.328125 0.75 -0.921875q0.296875 -0.609375 0.4375 -1.421875q0.140625 -0.8125 0.140625 -1.796875q0 -0.96875 -0.140625 -1.796875q-0.140625 -0.828125 -0.4375 -1.421875q-0.296875 -0.609375 -0.75 -0.9375q-0.4375 -0.328125 -1.078125 -0.328125q-0.625 0 -1.078125 0.328125q-0.453125 0.328125 -0.75 0.921875q-0.28125 0.59375 -0.4375 1.421875q-0.140625 0.8125 -0.140625 1.796875q0 0.984375 0.140625 1.796875q0.15625 0.8125 0.4375 1.421875q0.296875 0.609375 0.75 0.9375q0.453125 0.328125 1.078125 0.328125zm6.482895 0.78125l0 -0.9375l1.609375 -0.171875l1.296875 0l1.515625 0.171875l0 0.9375l-4.421875 0zm0.9375 0q0.015625 -0.484375 0.015625 -1.0625q0 -0.59375 0 -1.21875q0.015625 -0.625 0.015625 -1.15625l0 -0.921875q0 -0.375 0 -0.671875q0 -0.296875 -0.015625 -0.578125q0 -0.296875 -0.015625 -0.609375l-1.046875 -0.0625l0 -0.859375l2.875 -0.953125l0.546875 0.078125l0.203125 1.71875l0.109375 0.015625l0 2.84375q0 0.53125 0 1.15625q0 0.625 0 1.21875q0.015625 0.578125 0.015625 1.0625l-2.703125 0zm4.265625 0l0 -0.9375l1.46875 -0.171875l1.296875 0l1.515625 0.171875l0 0.9375l-4.28125 0zm0.8125 0q0.015625 -0.484375 0.015625 -1.0625q0 -0.59375 0 -1.203125q0.015625 -0.625 0.015625 -1.171875l0 -1.59375q0 -0.765625 -0.234375 -1.078125q-0.234375 -0.328125 -0.796875 -0.328125q-0.328125 0 -0.65625 0.140625q-0.328125 0.125 -0.65625 0.34375q-0.328125 0.203125 -0.640625 0.5l-0.03125 -1.0l0.53125 0q0.359375 -0.484375 0.75 -0.890625q0.390625 -0.40625 0.859375 -0.640625q0.484375 -0.234375 1.109375 -0.234375q1.1875 0 1.78125 0.703125q0.609375 0.6875 0.609375 2.0625l0 2.015625q0 0.546875 0 1.171875q0 0.609375 0 1.203125q0.015625 0.578125 0.015625 1.0625l-2.671875 0zm4.234375 0l0 -0.9375l1.4375 -0.171875l1.3125 0l1.65625 0.171875l0 0.9375l-4.40625 0zm0.796875 0q0 -0.484375 0 -1.0625q0.015625 -0.59375 0.015625 -1.203125q0 -0.625 0 -1.171875l0 -1.609375q0 -0.78125 -0.234375 -1.078125q-0.234375 -0.3125 -0.765625 -0.3125q-0.34375 0 -0.671875 0.125q-0.3125 0.109375 -0.640625 0.328125q-0.328125 0.203125 -0.65625 0.53125l-0.046875 -0.984375l0.53125 0q0.375 -0.546875 0.765625 -0.9375q0.40625 -0.40625 0.875 -0.625q0.484375 -0.21875 1.09375 -0.21875q1.203125 0 1.78125 0.703125q0.59375 0.703125 0.59375 2.109375l0 1.96875q0 0.546875 0 1.171875q0.015625 0.609375 0.015625 1.203125q0 0.578125 0.015625 1.0625l-2.671875 0zm4.4571533 0l0 -0.9375l1.609375 -0.171875l1.296875 0l1.53125 0.171875l0 0.9375l-4.4375 0zm0.9375 0q0.015625 -0.484375 0.015625 -1.0625q0 -0.59375 0 -1.21875q0.015625 -0.625 0.015625 -1.15625l0 -0.921875q0 -0.375 -0.015625 -0.671875q0 -0.296875 0 -0.578125q0 -0.296875 -0.015625 -0.609375l-1.046875 -0.0625l0 -0.859375l2.875 -0.953125l0.546875 0.078125l0.203125 1.71875l0.109375 0.015625l0 2.84375q0 0.53125 0 1.15625q0 0.625 0 1.21875q0.015625 0.578125 0.015625 1.0625l-2.703125 0zm4.34375 0l0 -0.9375l1.5 -0.171875l1.28125 0l1.671875 0.171875l0 0.9375l-4.453125 0zm0.828125 0q0.015625 -0.484375 0.015625 -1.0625q0 -0.59375 0 -1.203125q0.015625 -0.625 0.015625 -1.171875l0 -1.671875q0 -0.71875 -0.25 -1.015625q-0.25 -0.3125 -0.796875 -0.3125q-0.296875 0 -0.640625 0.125q-0.328125 0.109375 -0.671875 0.328125q-0.34375 0.203125 -0.6875 0.53125l-0.03125 -1.0625l0.546875 0q0.390625 -0.53125 0.796875 -0.90625q0.40625 -0.390625 0.875 -0.59375q0.484375 -0.203125 1.09375 -0.203125q1.140625 0 1.765625 0.703125q0.640625 0.6875 0.640625 2.0625l0 2.015625q0 0.546875 0 1.171875q0.015625 0.609375 0.015625 1.203125q0 0.578125 0.015625 1.0625l-2.703125 0zm4.4826508 0l0 -0.9375l1.609375 -0.171875l1.296875 0l1.671875 0.171875l0 0.9375l-4.578125 0zm0.9375 0q0.015625 -0.484375 0.015625 -1.0625q0 -0.59375 0 -1.21875q0.015625 -0.625 0.015625 -1.15625l0 -0.828125q0 -0.5625 -0.015625 -1.015625q0 -0.46875 -0.015625 -0.9375l-1.046875 -0.0625l0 -0.859375l3.15625 -0.953125l0.59375 0.078125l-0.015625 2.234375l0 2.34375q0 0.53125 0 1.15625q0 0.625 0 1.21875q0.015625 0.578125 0.015625 1.0625l-2.703125 0zm1.3125 -9.234375q-0.59375 0 -1.0 -0.375q-0.390625 -0.375 -0.390625 -0.953125q0 -0.578125 0.390625 -0.953125q0.40625 -0.375 1.0 -0.375q0.609375 0 1.0 0.375q0.40625 0.375 0.40625 0.953125q0 0.578125 -0.40625 0.953125q-0.390625 0.375 -1.0 0.375z" fill-rule="nonzero"/><path fill="#fdb515" d="m13.547958 43.56l0 -1.046875l2.046875 -0.109375l0.25 0l0 1.15625l-2.296875 0zm1.265625 0q0.015625 -0.796875 0.015625 -1.609375q0.015625 -0.8125 0.015625 -1.609375q0 -0.8125 0 -1.625l0 -0.8125q0 -0.828125 0 -1.625q0 -0.8125 -0.015625 -1.625q0 -0.8125 -0.015625 -1.609375l2.84375 0q-0.015625 0.78125 -0.03125 1.59375q0 0.8125 0 1.625q0 0.796875 0 1.640625l0 0.78125q0 0.8125 0 1.625q0 0.8125 0 1.625q0.015625 0.8125 0.03125 1.625l-2.84375 0zm1.8125 0l0 -1.046875l1.609375 0q1.234375 0 1.8125 -0.5q0.59375 -0.5 0.59375 -1.4375q0 -1.015625 -0.5625 -1.5q-0.5625 -0.484375 -1.78125 -0.484375l-1.8125 0l0 -0.984375l1.703125 0q0.671875 0 1.109375 -0.21875q0.4375 -0.21875 0.65625 -0.625q0.21875 -0.40625 0.21875 -0.984375q0 -0.5625 -0.21875 -0.9375q-0.203125 -0.375 -0.609375 -0.5625q-0.40625 -0.203125 -1.046875 -0.203125l-1.671875 0l0 -1.03125l2.125 0q1.421875 0 2.34375 0.296875q0.921875 0.296875 1.375 0.859375q0.46875 0.546875 0.46875 1.296875q0 0.6875 -0.375 1.203125q-0.375 0.515625 -1.140625 0.828125q-0.765625 0.296875 -1.9375 0.390625l0 0.109375q1.359375 0.046875 2.25 0.34375q0.90625 0.28125 1.34375 0.828125q0.453125 0.546875 0.453125 1.375q0 0.59375 -0.28125 1.140625q-0.265625 0.546875 -0.875 0.96875q-0.59375 0.40625 -1.59375 0.640625q-0.984375 0.234375 -2.390625 0.234375l-1.765625 0zm-3.078125 -9.484375l0 -1.03125l2.296875 0l0 1.15625l-0.25 0l-2.046875 -0.125zm15.400528 9.71875q-1.21875 0 -2.1875 -0.484375q-0.96875 -0.5 -1.53125 -1.453125q-0.546875 -0.953125 -0.546875 -2.28125q0 -1.34375 0.578125 -2.28125q0.59375 -0.953125 1.546875 -1.453125q0.96875 -0.5 2.140625 -0.5q1.171875 0 2.140625 0.484375q0.96875 0.484375 1.546875 1.421875q0.59375 0.9375 0.59375 2.296875q0 1.328125 -0.5625 2.296875q-0.5625 0.953125 -1.53125 1.453125q-0.96875 0.5 -2.1875 0.5zm0 -0.984375q0.484375 0 0.8125 -0.3125q0.328125 -0.328125 0.5 -1.03125q0.171875 -0.703125 0.171875 -1.875q0 -1.171875 -0.171875 -1.875q-0.171875 -0.71875 -0.5 -1.046875q-0.328125 -0.34375 -0.8125 -0.34375q-0.46875 0 -0.796875 0.328125q-0.328125 0.328125 -0.515625 1.03125q-0.171875 0.703125 -0.171875 1.875q0 1.15625 0.171875 1.875q0.1875 0.71875 0.515625 1.046875q0.328125 0.328125 0.796875 0.328125zm5.303894 0.75l0 -0.9375l1.640625 -0.171875l1.53125 0l1.828125 0.171875l0 0.9375l-5.0 0zm0.96875 0q0 -0.484375 0 -1.0625q0.015625 -0.59375 0.015625 -1.21875q0 -0.625 0 -1.15625l0 -0.921875q0 -0.375 0 -0.671875q0 -0.3125 -0.015625 -0.59375q0 -0.28125 0 -0.59375l-1.0625 -0.0625l0 -0.859375l2.890625 -0.953125l0.546875 0.078125l0.171875 2.0625l0.125 0.015625l0 2.5q0 0.53125 0 1.15625q0.015625 0.625 0.015625 1.21875q0 0.578125 0.015625 1.0625l-2.703125 0zm2.453125 -4.421875l-0.296875 -1.421875l0.59375 0q0.21875 -0.796875 0.53125 -1.296875q0.328125 -0.515625 0.75 -0.765625q0.421875 -0.265625 0.90625 -0.265625q0.5625 0 0.953125 0.3125q0.390625 0.3125 0.484375 0.90625q-0.046875 0.59375 -0.390625 0.984375q-0.34375 0.390625 -0.890625 0.390625q-0.40625 0 -0.71875 -0.1875q-0.3125 -0.203125 -0.578125 -0.546875l-0.3125 -0.390625l0.796875 0.109375q-0.625 0.296875 -1.109375 0.859375q-0.484375 0.5625 -0.71875 1.3125zm7.712387 8.109375q-1.21875 0 -2.015625 -0.25q-0.78125 -0.234375 -1.171875 -0.65625q-0.390625 -0.421875 -0.390625 -0.953125q0 -0.484375 0.28125 -0.828125q0.296875 -0.34375 0.84375 -0.5625q0.5625 -0.21875 1.328125 -0.3125l0.15625 0.09375q-0.171875 0.15625 -0.3125 0.328125q-0.125 0.1875 -0.21875 0.40625q-0.078125 0.21875 -0.078125 0.484375q0 0.375 0.21875 0.65625q0.21875 0.28125 0.65625 0.4375q0.4375 0.15625 1.15625 0.15625q0.796875 0 1.328125 -0.171875q0.546875 -0.15625 0.8125 -0.453125q0.28125 -0.28125 0.28125 -0.65625q0 -0.4375 -0.28125 -0.6875q-0.28125 -0.25 -0.9375 -0.25l-2.078125 0q-0.34375 0 -0.640625 -0.015625q-0.28125 -0.015625 -0.546875 -0.046875l0 -0.453125q-0.71875 -0.109375 -1.140625 -0.421875q-0.40625 -0.328125 -0.40625 -0.9375q0 -0.59375 0.4375 -0.984375q0.4375 -0.40625 1.21875 -0.65625l0 -0.484375l0.765625 0.140625q-0.234375 0.21875 -0.34375 0.421875q-0.09375 0.1875 -0.09375 0.484375q0 0.359375 0.25 0.546875q0.25 0.171875 0.8125 0.171875l1.921875 0q1.140625 0 1.84375 0.296875q0.703125 0.296875 1.015625 0.8125q0.3125 0.5 0.3125 1.171875q0 0.6875 -0.375 1.265625q-0.375 0.578125 -1.0625 1.0q-0.671875 0.4375 -1.578125 0.671875q-0.90625 0.234375 -1.96875 0.234375zm0.296875 -6.625q-1.125 0 -1.921875 -0.3125q-0.796875 -0.328125 -1.21875 -0.90625q-0.40625 -0.59375 -0.40625 -1.390625q0 -0.796875 0.40625 -1.390625q0.421875 -0.59375 1.203125 -0.9375q0.796875 -0.34375 1.90625 -0.34375q0.8125 0 1.390625 0.171875q0.59375 0.171875 0.96875 0.484375q0.375 0.296875 0.59375 0.6875l0.234375 0.03125q0.171875 0.234375 0.265625 0.546875q0.109375 0.3125 0.109375 0.71875q0 0.78125 -0.421875 1.375q-0.40625 0.59375 -1.1875 0.9375q-0.78125 0.328125 -1.921875 0.328125zm0 -0.859375q0.390625 0 0.625 -0.203125q0.25 -0.203125 0.359375 -0.609375q0.125 -0.40625 0.125 -0.984375q0 -0.578125 -0.125 -0.96875q-0.109375 -0.390625 -0.359375 -0.59375q-0.234375 -0.21875 -0.609375 -0.21875q-0.359375 0 -0.609375 0.21875q-0.25 0.203125 -0.375 0.609375q-0.109375 0.390625 -0.109375 0.96875q0 0.5625 0.109375 0.96875q0.125 0.40625 0.359375 0.609375q0.25 0.203125 0.609375 0.203125zm2.484375 -2.703125l0 -0.5625l0.4375 0l1.40625 -1.28125l0.640625 0.09375l0 1.75l-2.484375 0z" fill-rule="nonzero"/></g></svg>